<?xml version="1.0" encoding="UTF-8"?>
<svg width="24" height="24" viewBox="0 0 24 24" fill="none" xmlns="http://www.w3.org/2000/svg">
  <path d="M12 2C6.48 2 2 6.48 2 12C2 17.52 6.48 22 12 22C17.52 22 22 17.52 22 12C22 6.48 17.52 2 12 2ZM12 20C7.59 20 4 16.41 4 12C4 7.59 7.59 4 12 4C16.41 4 20 7.59 20 12C20 16.41 16.41 20 12 20Z" fill="url(#paint0_linear)"/>
  <path d="M15 7H9C8.45 7 8 7.45 8 8V16C8 16.55 8.45 17 9 17H15C15.55 17 16 16.55 16 16V8C16 7.45 15.55 7 15 7ZM14 15H10V9H14V15Z" fill="url(#paint1_linear)"/>
  <defs>
    <linearGradient id="paint0_linear" x1="2" y1="12" x2="22" y2="12" gradientUnits="userSpaceOnUse">
      <stop stop-color="#059669"/>
      <stop offset="1" stop-color="#0D9488"/>
    </linearGradient>
    <linearGradient id="paint1_linear" x1="8" y1="12" x2="16" y2="12" gradientUnits="userSpaceOnUse">
      <stop stop-color="#059669"/>
      <stop offset="1" stop-color="#0D9488"/>
    </linearGradient>
  </defs>
</svg> 